<mxfile host="Electron" modified="2024-08-23T22:04:37.881Z" agent="Mozilla/5.0 (X11; Linux x86_64) AppleWebKit/537.36 (KHTML, like Gecko) draw.io/24.6.4 Chrome/124.0.6367.207 Electron/30.0.6 Safari/537.36" etag="r0uP2D3VMah2iDZcamx-" version="24.6.4" type="device">
  <diagram name="Page-1" id="G1PhLZSnzxK324VZEjjs">
    <mxGraphModel dx="768" dy="519" grid="1" gridSize="10" guides="1" tooltips="1" connect="1" arrows="1" fold="1" page="1" pageScale="1" pageWidth="827" pageHeight="1169" math="0" shadow="0">
      <root>
        <mxCell id="0" />
        <mxCell id="1" parent="0" />
        <mxCell id="Pj2GW_o1gfFWr4_-rcVl-13" value="Head Mounted Display / VR Headset" style="rounded=0;whiteSpace=wrap;html=1;labelPosition=center;verticalLabelPosition=top;align=center;verticalAlign=bottom;fontStyle=1;fillColor=none;" vertex="1" parent="1">
          <mxGeometry x="80" y="40" width="600" height="240" as="geometry" />
        </mxCell>
        <mxCell id="Pj2GW_o1gfFWr4_-rcVl-12" value="Swapchain (Right eye)" style="rounded=0;whiteSpace=wrap;html=1;labelPosition=center;verticalLabelPosition=top;align=center;verticalAlign=bottom;fontStyle=1;fillColor=none;" vertex="1" parent="1">
          <mxGeometry x="390" y="70" width="260" height="180" as="geometry" />
        </mxCell>
        <mxCell id="Pj2GW_o1gfFWr4_-rcVl-11" value="Swapchain (Left eye)" style="rounded=0;whiteSpace=wrap;html=1;verticalAlign=bottom;labelPosition=center;verticalLabelPosition=top;align=center;fontStyle=1;fillColor=none;" vertex="1" parent="1">
          <mxGeometry x="110" y="70" width="260" height="180" as="geometry" />
        </mxCell>
        <mxCell id="Pj2GW_o1gfFWr4_-rcVl-1" value="2" style="rounded=0;whiteSpace=wrap;html=1;fontSize=80;fontStyle=1;align=left;" vertex="1" parent="1">
          <mxGeometry x="120" y="80" width="160" height="80" as="geometry" />
        </mxCell>
        <mxCell id="Pj2GW_o1gfFWr4_-rcVl-6" value="1" style="rounded=0;whiteSpace=wrap;html=1;fontSize=80;fontStyle=1;align=left;" vertex="1" parent="1">
          <mxGeometry x="160" y="120" width="160" height="80" as="geometry" />
        </mxCell>
        <mxCell id="Pj2GW_o1gfFWr4_-rcVl-7" value="0" style="rounded=0;whiteSpace=wrap;html=1;fontSize=80;fontStyle=1;align=left;" vertex="1" parent="1">
          <mxGeometry x="200" y="160" width="160" height="80" as="geometry" />
        </mxCell>
        <mxCell id="Pj2GW_o1gfFWr4_-rcVl-8" value="2" style="rounded=0;whiteSpace=wrap;html=1;fontSize=80;fontStyle=1;align=left;" vertex="1" parent="1">
          <mxGeometry x="400" y="80" width="160" height="80" as="geometry" />
        </mxCell>
        <mxCell id="Pj2GW_o1gfFWr4_-rcVl-9" value="1" style="rounded=0;whiteSpace=wrap;html=1;fontSize=80;fontStyle=1;align=left;" vertex="1" parent="1">
          <mxGeometry x="440" y="120" width="160" height="80" as="geometry" />
        </mxCell>
        <mxCell id="Pj2GW_o1gfFWr4_-rcVl-10" value="0" style="rounded=0;whiteSpace=wrap;html=1;fontSize=80;fontStyle=1;align=left;" vertex="1" parent="1">
          <mxGeometry x="480" y="160" width="160" height="80" as="geometry" />
        </mxCell>
        <mxCell id="Pj2GW_o1gfFWr4_-rcVl-16" value="Current frame" style="text;html=1;align=right;verticalAlign=middle;whiteSpace=wrap;rounded=0;fontStyle=1" vertex="1" parent="1">
          <mxGeometry x="160" y="120" width="160" height="30" as="geometry" />
        </mxCell>
        <mxCell id="Pj2GW_o1gfFWr4_-rcVl-17" value="Current frame" style="text;html=1;align=right;verticalAlign=middle;whiteSpace=wrap;rounded=0;fontStyle=1" vertex="1" parent="1">
          <mxGeometry x="440" y="120" width="160" height="30" as="geometry" />
        </mxCell>
        <mxCell id="Pj2GW_o1gfFWr4_-rcVl-18" value="Previous frame" style="text;html=1;align=right;verticalAlign=middle;whiteSpace=wrap;rounded=0;fontStyle=1" vertex="1" parent="1">
          <mxGeometry x="200" y="160" width="160" height="30" as="geometry" />
        </mxCell>
        <mxCell id="Pj2GW_o1gfFWr4_-rcVl-19" value="Previous frame" style="text;html=1;align=right;verticalAlign=middle;whiteSpace=wrap;rounded=0;fontStyle=1" vertex="1" parent="1">
          <mxGeometry x="480" y="160" width="160" height="30" as="geometry" />
        </mxCell>
        <mxCell id="Pj2GW_o1gfFWr4_-rcVl-20" value="Next frame" style="text;html=1;align=right;verticalAlign=middle;whiteSpace=wrap;rounded=0;fontStyle=1" vertex="1" parent="1">
          <mxGeometry x="400" y="80" width="160" height="30" as="geometry" />
        </mxCell>
        <mxCell id="Pj2GW_o1gfFWr4_-rcVl-21" value="Next frame" style="text;html=1;align=right;verticalAlign=middle;whiteSpace=wrap;rounded=0;fontStyle=1" vertex="1" parent="1">
          <mxGeometry x="120" y="80" width="160" height="30" as="geometry" />
        </mxCell>
      </root>
    </mxGraphModel>
  </diagram>
</mxfile>
